<svg width="200" height="200" viewBox="0 0 200 200" fill="none" xmlns="http://www.w3.org/2000/svg">
<g clip-path="url(#clip0_1_10)">
<rect width="200" height="200" fill="#2D2D2D"/>
<path d="M45.642 233V87.5455H103.881C114.581 87.5455 123.507 89.1316 130.656 92.304C137.806 95.4763 143.18 99.8797 146.778 105.514C150.377 111.101 152.176 117.541 152.176 124.832C152.176 130.514 151.04 135.509 148.767 139.818C146.494 144.08 143.369 147.583 139.392 150.33C135.462 153.028 130.964 154.946 125.898 156.082V157.503C131.438 157.74 136.622 159.302 141.452 162.19C146.329 165.079 150.282 169.127 153.312 174.335C156.343 179.496 157.858 185.652 157.858 192.801C157.858 200.519 155.94 207.408 152.105 213.469C148.317 219.482 142.706 224.241 135.273 227.744C127.839 231.248 118.677 233 107.787 233H45.642ZM76.3949 207.858H101.466C110.036 207.858 116.286 206.224 120.216 202.957C124.146 199.643 126.111 195.24 126.111 189.747C126.111 185.723 125.14 182.171 123.199 179.094C121.258 176.016 118.488 173.601 114.889 171.849C111.338 170.098 107.1 169.222 102.176 169.222H76.3949V207.858ZM76.3949 148.412H99.1932C103.407 148.412 107.148 147.678 110.415 146.21C113.729 144.695 116.333 142.564 118.227 139.818C120.169 137.072 121.139 133.781 121.139 129.946C121.139 124.69 119.269 120.453 115.528 117.233C111.835 114.013 106.58 112.403 99.7614 112.403H76.3949V148.412Z" fill="white"/>
</g>
<defs>
<clipPath id="clip0_1_10">
<rect width="200" height="200" rx="56" fill="white"/>
</clipPath>
</defs>
</svg>
